<?xml version="1.0" encoding="UTF-8" standalone="no"?>
<!-- Created with Inkscape (http://www.inkscape.org/) -->

<svg
   xmlns:dc="http://purl.org/dc/elements/1.1/"
   xmlns:cc="http://creativecommons.org/ns#"
   xmlns:rdf="http://www.w3.org/1999/02/22-rdf-syntax-ns#"
   xmlns:svg="http://www.w3.org/2000/svg"
   xmlns="http://www.w3.org/2000/svg"
   xmlns:xlink="http://www.w3.org/1999/xlink"
   xmlns:sodipodi="http://sodipodi.sourceforge.net/DTD/sodipodi-0.dtd"
   xmlns:inkscape="http://www.inkscape.org/namespaces/inkscape"
   width="525.02856"
   height="129.79999"
   id="svg3668"
   version="1.1"
   inkscape:version="0.48.1 r9760"
   sodipodi:docname="logo.pdf">
  <defs
     id="defs3670">
    <inkscape:path-effect
       is_visible="true"
       id="path-effect3884"
       effect="spiro" />
    <linearGradient
       inkscape:collect="always"
       xlink:href="#linearGradient3848"
       id="linearGradient3948"
       gradientUnits="userSpaceOnUse"
       gradientTransform="translate(-1184.2123,1690.3851)"
       x1="-871.56384"
       y1="3752.873"
       x2="-514.85223"
       y2="3135.0305" />
    <linearGradient
       id="linearGradient3848">
      <stop
         style="stop-color:#181818;stop-opacity:1;"
         offset="0"
         id="stop3850" />
      <stop
         style="stop-color:#3f3f3f;stop-opacity:1;"
         offset="1"
         id="stop3852" />
    </linearGradient>
    <inkscape:path-effect
       is_visible="true"
       id="path-effect3600"
       effect="spiro" />
    <linearGradient
       inkscape:collect="always"
       xlink:href="#linearGradient3848"
       id="linearGradient3909"
       gradientUnits="userSpaceOnUse"
       gradientTransform="translate(-1184.2123,1690.3851)"
       x1="-871.56384"
       y1="3752.873"
       x2="-514.85223"
       y2="3135.0305" />
    <linearGradient
       id="linearGradient3603">
      <stop
         style="stop-color:#181818;stop-opacity:1;"
         offset="0"
         id="stop3605" />
      <stop
         style="stop-color:#3f3f3f;stop-opacity:1;"
         offset="1"
         id="stop3607" />
    </linearGradient>
    <filter
       inkscape:collect="always"
       id="filter3868"
       color-interpolation-filters="sRGB">
      <feGaussianBlur
         inkscape:collect="always"
         stdDeviation="16.640371"
         id="feGaussianBlur3870" />
    </filter>
    <filter
       inkscape:collect="always"
       id="filter4471"
       color-interpolation-filters="sRGB">
      <feGaussianBlur
         inkscape:collect="always"
         stdDeviation="10.297166"
         id="feGaussianBlur4473" />
    </filter>
    <filter
       inkscape:collect="always"
       id="filter3955"
       x="-0.063015677"
       width="1.1260314"
       y="-0.10177726"
       height="1.2035545"
       color-interpolation-filters="sRGB">
      <feGaussianBlur
         inkscape:collect="always"
         stdDeviation="4.9270983"
         id="feGaussianBlur3957" />
    </filter>
  </defs>
  <sodipodi:namedview
     id="base"
     pagecolor="#ffffff"
     bordercolor="#666666"
     borderopacity="1.0"
     inkscape:pageopacity="0.0"
     inkscape:pageshadow="2"
     inkscape:zoom="0.7875"
     inkscape:cx="326.08571"
     inkscape:cy="159.18573"
     inkscape:document-units="px"
     inkscape:current-layer="layer1"
     showgrid="false"
     fit-margin-top="0"
     fit-margin-left="0"
     fit-margin-right="0"
     fit-margin-bottom="0"
     inkscape:window-width="1441"
     inkscape:window-height="758"
     inkscape:window-x="1115"
     inkscape:window-y="619"
     inkscape:window-maximized="0" />
  <metadata
     id="metadata3673">
    <rdf:RDF>
      <cc:Work
         rdf:about="">
        <dc:format>image/svg+xml</dc:format>
        <dc:type
           rdf:resource="http://purl.org/dc/dcmitype/StillImage" />
        <dc:title></dc:title>
      </cc:Work>
    </rdf:RDF>
  </metadata>
  <g
     inkscape:label="Layer 1"
     inkscape:groupmode="layer"
     id="layer1"
     transform="translate(-48.914288,-561.74792)">
    <rect
       inkscape:export-ydpi="300"
       inkscape:export-xdpi="300"
       style="opacity:0.0110497;fill:#ffffff;fill-opacity:0.00392157;fill-rule:evenodd;stroke:none"
       id="rect3950"
       width="525.02856"
       height="129.79999"
       x="48.914288"
       y="561.74792" />
    <path
       sodipodi:type="arc"
       style="fill:#ffffff;fill-opacity:1;fill-rule:evenodd;stroke:none"
       id="path4255"
       sodipodi:cx="-1572"
       sodipodi:cy="5152.3623"
       sodipodi:rx="372"
       sodipodi:ry="372"
       d="m -1200,5152.3623 c 0,205.4499 -166.5501,372 -372,372 -205.4499,0 -372,-166.5501 -372,-372 0,-205.4499 166.5501,-372 372,-372 205.4499,0 372,166.5501 372,372 z"
       transform="matrix(0.12830058,0,0,0.12830058,324.18982,-34.205767)" />
    <path
       inkscape:connector-curvature="0"
       id="path3949"
       d="m -1961.8879,4908.6908 c -3.7828,-0.025 -7.4187,0.5809 -10.7757,1.8764 -11.0089,6.3768 -0.9133,26.9228 16.9744,47.1539 6.0596,6.8534 12.9992,13.669 20.0344,19.802 l 26.7561,3.7749 c -12.3481,-19.5772 -28.4506,-41.0274 -44.4628,-56.227 l 0.9939,0.839 -1.2031,-1.0597 c -2.6847,-2.5387 -5.3435,-4.9194 -8.0033,-7.0643 3.0398,2.4319 6.1318,5.142 9.2326,8.0798 l 6.9833,-13.7312 c -4.3051,-1.6534 -8.5911,-2.751 -12.7113,-3.2009 -1.2939,-0.1412 -2.5575,-0.2347 -3.8185,-0.2429 z m 9.5465,17.175 -0.026,0.044 0.053,0.066 0.026,-0.044 c -0.02,-0.02 -0.032,-0.046 -0.053,-0.066 z m 0.053,0.066 c 20.6458,19.5789 41.9977,49.0825 55.5524,71.6801 2.5617,4.2707 4.5072,9.4134 5.9633,14.0844 -0.915,2.3282 -1.0611,3.6589 -0.9155,4.0177 0.2058,-0.1988 0.7196,-1.0451 1.4386,-2.2517 1.7473,5.9392 2.6797,10.7588 3.0601,11.4132 0.529,-0.6643 1.1277,-5.0863 -1.3339,-14.305 2.7342,-4.4799 6.9507,-10.91 11.7957,-15.4752 19.7214,-18.5831 50.4442,-42.8559 74.5146,-53.7545 l -13.182,-7.3292 c -17.4922,2.7444 -38.0897,13.8728 -51.4984,27.5727 l 2.8248,20.1551 -3.7142,-19.228 c -9.7529,10.2981 -15.3784,21.9625 -12.6063,32.5617 -4.3383,5.5169 -7.0821,9.8777 -8.788,13.1573 -0.8453,-2.8371 -1.9479,-6.043 -3.4002,-9.6914 6.9676,-11.3223 4.7723,-26.0033 -2.5892,-40.1999 l -11.1159,20.8838 10.4619,-22.1642 c -10.286,-18.9976 -29.6721,-36.9192 -48.543,-44.5269 l -7.9248,13.4 z m 43.3904,55.3661 c 0.015,0.024 0.038,0.043 0.053,0.066 0.062,0 1.2553,0.1104 1.2553,0.1104 l -1.3078,-0.1766 z m 0.053,0.066 c -1.2107,-0.099 -12.8217,-1.0352 -24.664,-1.9869 13.8413,11.7566 27.8525,20.6639 36.3813,22.0097 -3.2864,-6.1706 -7.2735,-12.974 -11.7173,-20.0228 z m -56.2326,-66.2484 c 1.0361,0.747 2.045,1.5133 3.034,2.2958 l 0,0.022 0.079,0.044 -0.053,0.9493 -0.026,-0.9935 c -0.9877,-0.7876 -1.9951,-1.5654 -3.034,-2.3179 z m 157.8173,18.2566 c -2.317,-0.014 -4.7118,0.1586 -7.1926,0.5078 l 12.3188,7.4395 c 0.5084,-0.2296 1.0278,-0.4422 1.5431,-0.6623 -0.5165,0.223 -1.0344,0.4526 -1.5431,0.6844 l -0.2877,0.8167 0.2093,-0.7946 c -19.2689,8.8072 -42.2572,26.2865 -60.2603,42.562 l 22.99,1.8764 c 7.3811,-3.7323 14.8361,-8.0332 21.6036,-12.539 19.9772,-13.3006 33.6425,-28.3222 26.2594,-35.6082 -3.2275,-2.2514 -7.1596,-3.5422 -11.5603,-4.0399 -1.3137,-0.1485 -2.6902,-0.2344 -4.0802,-0.2428 z m -55.2125,50.5535 -1.1247,-0.088 c 0,0 1.019,0.147 1.0723,0.1546 0.022,-0.02 0.03,-0.046 0.053,-0.066 z m -0.053,0.066 c -5.4945,4.9698 -10.5428,9.8204 -14.8558,14.283 7.3597,0.4793 21.1816,-4.2582 35.6227,-11.3469 -9.973,-1.418 -19.7333,-2.7906 -20.7669,-2.9361 z"
       style="opacity:0.50828732;fill:#111111;fill-opacity:1;stroke:none;filter:url(#filter3955)"
       transform="matrix(0.10056195,0,0,0.10847231,310.93342,65.027933)" />
    <g
       transform="matrix(0.10847231,0,0,0.10847231,326.53782,65.027933)"
       style="font-size:416.45117188px;font-style:normal;font-variant:normal;font-weight:300;font-stretch:normal;text-align:start;line-height:125%;letter-spacing:0px;word-spacing:0px;writing-mode:lr-tb;text-anchor:start;opacity:0.32596687;fill:#222222;fill-opacity:1;stroke:none;filter:url(#filter4471);font-family:Kozuka Gothic Pro;-inkscape-font-specification:Kozuka Gothic Pro Light"
       id="text4461">

    </g>
    <path
       style="opacity:0.47513811;fill:#000000;fill-opacity:1;fill-rule:evenodd;stroke:none;filter:url(#filter3868)"
       d="m -1891.2188,4750.4688 c -242.8836,0 -439.7812,196.8976 -439.7812,439.7812 0,138.8063 64.3026,262.5876 164.75,343.1875 3.3963,-16.0149 6.7826,-31.8181 10.125,-47.5313 -81.4365,-72.6969 -132.6875,-178.4641 -132.6875,-296.2187 0,-219.2353 177.7022,-396.9687 396.9375,-396.9687 219.2353,0 396.9688,177.7334 396.9688,396.9687 0,117.8473 -51.327,223.7043 -132.875,296.4063 3.3892,15.9971 6.7942,32.1032 10.25,48.4062 101.212,-80.5721 166.0937,-204.8298 166.0937,-344.25 0,-242.8836 -196.8976,-439.7812 -439.7813,-439.7812 z m 3.0938,276.3437 c -88.4697,0 -155.0426,28.7581 -179.8125,109.0937 -19.6361,2.6752 -34.9375,23.1815 -34.9375,48.0938 0,20.4998 10.3616,38.0059 24.9688,45.0625 -5.8882,88.8203 -43.7958,198.9318 -69.1563,318.9375 72.079,51.6392 160.4128,82.0312 255.8437,82.0312 94.8361,0 182.6694,-30.0088 254.5,-81.0624 -25.4588,-120.5098 -58.458,-234.2462 -64.2187,-323.6876 13.7837,-7.5171 23.4063,-24.5145 23.4063,-44.2812 0,-24.1819 -14.4152,-44.2112 -33.2188,-47.8125 -24.6678,-80.4911 -88.7947,-106.375 -177.375,-106.375 z m -54.2188,60.8125 c 18.9602,-0.3608 37.7597,9.6943 51.8126,26.5938 16.8922,-20.3047 40.5648,-30.7269 63.2187,-25.0626 34.8303,8.709 46.9913,53.1051 35.7813,97.9376 -4.5265,18.103 -13.3079,33.6639 -24.4688,45.2187 0,40.7555 -41.1088,383.9152 -65.7812,361.625 -24.109,21.4995 -89.7813,-329.3774 -89.7813,-362.0313 -11.428,-11.6111 -8.4289,-23.4063 -13.0313,-41.8124 -11.2099,-44.8325 -4.049,-92.2286 30.7813,-100.9376 3.8096,-0.9524 7.6371,-1.4583 11.4687,-1.5312 z m -12.375,39.0625 c -8.4574,-0.037 -17.1757,6.4251 -21.1562,16.5313 -4.8991,12.4384 -0.7944,25.6744 9.1562,29.5937 9.9509,3.9192 22.0072,-2.9678 26.9063,-15.4063 4.8991,-12.4384 0.7946,-25.7056 -9.1563,-29.625 -1.8657,-0.7348 -3.7981,-1.0847 -5.75,-1.0937 z m 128.3438,0 c -1.9517,0.01 -3.8842,0.3589 -5.75,1.0937 -9.9507,3.9194 -14.0552,17.1866 -9.1562,29.625 4.8991,12.4386 9.9242,20.3255 19.875,16.4063 9.9508,-3.9193 14.0553,-17.1553 9.1562,-29.5937 -3.9805,-10.1064 -5.6676,-17.5685 -14.125,-17.5313 z m 107.5625,18.7187 c 17.9513,0 32.5,17.9377 32.5,40.0626 0,22.1247 -14.5487,40.0624 -32.5,40.0624 -5.7919,0 -11.2284,-1.8835 -15.9375,-5.1562 0.7548,0.097 1.5368,0.1562 2.3125,0.1562 12.0725,0 21.8437,-12.0582 21.8437,-26.9374 0,-14.8794 -9.7712,-26.9376 -21.8437,-26.9376 -7.7616,0 -14.59,4.9855 -18.4687,12.5 2.4588,-19.1215 15.8877,-33.75 32.0937,-33.75 z m -342.7813,3 c 16.2062,0 29.635,14.6285 32.0938,33.75 -3.8787,-7.5145 -10.7071,-12.5 -18.4688,-12.5 -12.0725,0 -21.8437,12.0582 -21.8437,26.9376 0,14.8792 9.7713,26.9374 21.8437,26.9374 0.7757,0 1.5578,-0.059 2.3126,-0.1562 -4.709,3.2727 -13.4131,-0.057 -15.9376,5.1562 -3.0142,6.2238 -32.5,-17.9377 -32.5,-40.0624 0,-22.1249 14.5487,-40.0626 32.5,-40.0626 z"
       id="path3876"
       inkscape:connector-curvature="0"
       transform="matrix(0.10847231,0,0,0.10847231,326.53782,65.027933)" />
    <g
       id="g3905"
       transform="matrix(0.10847231,0,0,0.10847231,327.62252,63.943233)">
      <path
         style="fill:#ffffff;fill-opacity:1;stroke:#000000;stroke-width:1px;stroke-linecap:butt;stroke-linejoin:miter;stroke-opacity:1"
         d="m -1880.8335,5049.9114 -125.7209,34.8533 -54.7694,39.21 -24.2729,13.6924 -14.9371,12.4476 -9.3357,14.9371 0,12.4476 c 0,5.2927 0.4436,10.6782 2.4895,15.5595 l 3.7343,11.8252 4.3566,10.5805 10.5805,9.3357 11.8252,19.9162 182.9799,371.5611 93.357,-18.6714 93.3571,-363.4702 13.07,-13.07 8.0909,-9.3357 6.8462,-10.5804 c 1.1055,-5.1726 2.1429,-10.3597 3.1119,-15.5596 0.8873,-4.7613 1.7172,-9.5334 2.4895,-14.3147 l -16.1819,-21.7833 -37.3428,-16.8043 -105.8046,-63.4828 -47.9233,-19.2938"
         id="path3878"
         inkscape:path-effect="#path-effect3884"
         inkscape:original-d="m -1880.8335,5049.9114 -125.7209,34.8533 -54.7694,39.21 -24.2729,13.6924 -14.9371,12.4476 -9.3357,14.9371 c 0,0 0,9.9581 0,12.4476 0,2.4895 2.4895,15.5595 2.4895,15.5595 l 3.7343,11.8252 4.3566,10.5805 10.5805,9.3357 11.8252,19.9162 182.9799,371.5611 93.357,-18.6714 93.3571,-363.4702 13.07,-13.07 8.0909,-9.3357 6.8462,-10.5804 3.1119,-15.5596 2.4895,-14.3147 -16.1819,-21.7833 -37.3428,-16.8043 -105.8046,-63.4828 z"
         inkscape:connector-curvature="0" />
      <path
         id="path3880"
         d="m -1891.2188,4750.4688 c -242.8836,0 -439.7812,196.8976 -439.7812,439.7812 0,138.8063 64.3026,262.5876 164.75,343.1875 3.3963,-16.0149 6.7826,-31.8181 10.125,-47.5313 -81.4365,-72.6969 -132.6875,-178.4641 -132.6875,-296.2187 0,-219.2353 177.7022,-396.9687 396.9375,-396.9687 219.2353,0 396.9688,177.7334 396.9688,396.9687 0,117.8473 -51.327,223.7043 -132.875,296.4063 3.3892,15.9971 6.7942,32.1032 10.25,48.4062 101.212,-80.5721 166.0937,-204.8298 166.0937,-344.25 0,-242.8836 -196.8976,-439.7812 -439.7813,-439.7812 z m -0.6562,242.7187 c -88.4697,0 -163.2926,58.3831 -188.0625,138.7187 -19.6361,2.6752 -34.9375,23.1815 -34.9375,48.0938 0,20.4998 10.3616,38.0059 24.9688,45.0625 -5.8882,88.8203 -31.7958,202.9318 -57.1563,322.9375 72.079,51.6392 160.4128,82.0312 255.8437,82.0312 94.8361,0 182.6694,-30.0088 254.5,-81.0624 -25.4588,-120.5098 -51.458,-235.2462 -57.2187,-324.6876 13.7837,-7.5171 23.4063,-24.5145 23.4063,-44.2812 0,-24.1819 -14.4152,-44.2112 -33.2188,-47.8125 -24.6678,-80.4911 -99.5447,-139 -188.125,-139 z m -50.4688,94.4375 c 18.9602,-0.3608 37.7597,9.6943 51.8126,26.5938 16.8922,-20.3047 40.5648,-30.7269 63.2187,-25.0626 34.8303,8.709 53.9913,52.1051 42.7813,96.9376 -4.5265,18.103 -13.3079,33.6639 -24.4688,45.2187 0,40.7555 -48.1088,384.9152 -72.7812,362.625 -24.109,21.4995 -89.7813,-329.3774 -89.7813,-362.0313 -11.428,-11.6111 -20.4289,-27.4063 -25.0313,-45.8124 -11.2099,-44.8325 7.951,-88.2286 42.7813,-96.9376 3.8096,-0.9524 7.6371,-1.4583 11.4687,-1.5312 z m -12.375,39.0625 c -8.4574,-0.037 -17.1757,6.4251 -21.1562,16.5313 -4.8991,12.4384 -0.7944,25.6744 9.1562,29.5937 9.9509,3.9192 22.0072,-2.9678 26.9063,-15.4063 4.8991,-12.4384 0.7946,-25.7056 -9.1563,-29.625 -1.8657,-0.7348 -3.7981,-1.0847 -5.75,-1.0937 z m 128.3438,0 c -1.9517,0.01 -3.8842,0.3589 -5.75,1.0937 -9.9507,3.9194 -14.0552,17.1866 -9.1562,29.625 4.8991,12.4386 16.9242,19.3255 26.875,15.4063 9.9508,-3.9193 14.0553,-17.1553 9.1562,-29.5937 -3.9805,-10.1064 -12.6676,-16.5685 -21.125,-16.5313 z m -247.2188,17.7187 c 16.2061,0 29.635,14.6285 32.0938,33.75 -3.8787,-7.5145 -10.7071,-12.5 -18.4688,-12.5 -12.0725,0 -21.8437,12.0582 -21.8437,26.9376 0,14.8792 9.7713,26.9374 21.8437,26.9374 0.7758,0 1.5577,-0.059 2.3126,-0.1562 -4.709,3.2727 -10.1456,5.1562 -15.9376,5.1562 -17.9513,0 -32.5,-17.9377 -32.5,-40.0624 0,-22.1249 14.5487,-40.0626 32.5,-40.0626 z m 361.7813,0 c 17.9513,0 32.5,17.9377 32.5,40.0626 0,22.1247 -14.5487,40.0624 -32.5,40.0624 -5.7919,0 -11.2284,-1.8835 -15.9375,-5.1562 0.7548,0.097 1.5368,0.1562 2.3125,0.1562 12.0725,0 21.8437,-12.0582 21.8437,-26.9374 0,-14.8794 -9.7712,-26.9376 -21.8437,-26.9376 -7.7616,0 -14.59,4.9855 -18.4687,12.5 2.4588,-19.1215 15.8877,-33.75 32.0937,-33.75 z"
         style="fill:url(#linearGradient3909);fill-opacity:1;fill-rule:evenodd;stroke:none"
         inkscape:connector-curvature="0" />
    </g>
    <path
       style="fill:#2f2f2f;fill-opacity:1;stroke:none"
       d="m 114.74932,594.15964 c -0.4059,0 -0.7961,0.074 -1.1563,0.2385 -1.1815,0.8107 -0.098,3.4231 1.8216,5.9954 0.6503,0.8714 1.3949,1.7379 2.15,2.5177 l 2.8713,0.48 c -1.3251,-2.4892 -3.0532,-5.2165 -4.7715,-7.1491 l 0.106,0.1072 -0.1291,-0.1347 c -0.2881,-0.3228 -0.5734,-0.6255 -0.8589,-0.8982 0.3263,0.3092 0.6581,0.6537 0.9909,1.0273 l 0.7494,-1.7458 c -0.462,-0.2103 -0.9219,-0.3499 -1.3642,-0.4071 -0.1388,-0.017 -0.2744,-0.029 -0.4098,-0.031 z m 1.0245,2.1837 0,0.011 0.011,0.011 0,-0.011 c 0,0 0,-0.011 -0.011,-0.011 z m 0.011,0.011 c 2.2156,2.4893 4.507,6.2406 5.9617,9.1137 0.2748,0.543 0.4837,1.1969 0.6399,1.7908 -0.098,0.296 -0.1138,0.4652 -0.098,0.5108 0.022,-0.025 0.078,-0.1328 0.1544,-0.2863 0.1875,0.7551 0.2875,1.3679 0.3283,1.4511 0.057,-0.084 0.121,-0.6467 -0.1431,-1.8188 0.2934,-0.5696 0.746,-1.3871 1.2658,-1.9676 2.1165,-2.3628 5.4135,-5.4489 7.9967,-6.8346 l -1.4146,-0.9318 c -1.8773,0.3489 -4.0878,1.7638 -5.5267,3.5056 l 0.3032,2.5627 -0.3986,-2.4447 c -1.0467,1.3094 -1.6504,2.7924 -1.3529,4.14 -0.4655,0.7015 -0.76,1.2559 -0.9431,1.6729 -0.091,-0.3607 -0.2091,-0.7684 -0.3649,-1.2322 0.7478,-1.4396 0.5122,-3.3062 -0.2778,-5.1112 l -1.1929,2.6553 1.1226,-2.8181 c -1.1038,-2.4155 -3.1842,-4.6941 -5.2093,-5.6613 l -0.8505,1.7037 z m 4.6565,7.0395 c 0,0 0,0.011 0.011,0.011 0.011,0 0.1347,0.014 0.1347,0.014 l -0.1404,-0.023 z m 0.011,0.011 c -0.13,-0.013 -1.376,-0.1316 -2.6469,-0.2526 1.4854,1.4948 2.989,2.6273 3.9043,2.7984 -0.3527,-0.7845 -0.7806,-1.6496 -1.2574,-2.5458 z m -6.0347,-8.4231 c 0.1111,0.095 0.2195,0.1923 0.3256,0.2918 l 0,0 0.011,0.011 -0.011,0.1207 0,-0.1264 c -0.1061,-0.1 -0.2142,-0.199 -0.3256,-0.2947 z m 16.9364,2.3212 c -0.2488,0 -0.5057,0.02 -0.7719,0.065 l 1.3219,0.9459 c 0.055,-0.029 0.1103,-0.057 0.1657,-0.084 -0.056,0.028 -0.111,0.058 -0.1657,0.088 l -0.031,0.1039 0.022,-0.1006 c -2.0678,1.1198 -4.5348,3.3422 -6.4668,5.4115 l 2.4672,0.2386 c 0.792,-0.4745 1.5921,-1.0214 2.3184,-1.5943 2.1438,-1.6911 3.6103,-3.601 2.818,-4.5274 -0.3464,-0.2862 -0.7684,-0.4504 -1.2406,-0.5136 -0.141,-0.019 -0.2887,-0.029 -0.4379,-0.031 z m -5.9252,6.4276 -0.1208,-0.011 c 0,0 0.1094,0.019 0.1151,0.02 0,0 0,-0.011 0.011,-0.011 z m -0.011,0.011 c -0.5896,0.6318 -1.1313,1.2485 -1.5942,1.816 0.7898,0.061 2.2731,-0.5414 3.8229,-1.4428 -1.0703,-0.1803 -2.1177,-0.3548 -2.2287,-0.3732 z"
       id="path3925"
       inkscape:connector-curvature="0" />
  </g>
</svg>
